<?xml version="1.0" encoding="utf-8"?>
<!-- Generator: Adobe Illustrator 21.0.2, SVG Export Plug-In . SVG Version: 6.00 Build 0)  -->
<svg version="1.1" id="TRIMM_WORDMARK__x2B__TAGLINE"
	 xmlns="http://www.w3.org/2000/svg" xmlns:xlink="http://www.w3.org/1999/xlink" x="0px" y="0px" width="819px" height="199.5px"
	 viewBox="0 0 819 199.5" style="enable-background:new 0 0 819 199.5;" xml:space="preserve">
<style type="text/css">
	.st0{fill:#46413C;}
	.st1{display:none;fill:#F69227;}
	.st2{display:none;fill:#46413C;}
	.st3{display:none;fill:#D51D4D;}
	.st4{display:none;fill:#F6CD2C;}
	.st5{display:none;fill:#BBCC32;}
	.st6{fill:#0D709A;}
	.st7{fill:#FFFFFF;}
</style>
<g id="WORDMARK">
	<path id="M_2_" class="st0" d="M640.4,40.7h42.4l26.1,42.8l26.1-42.8h42.4v121.7h-40.5V102l-28,43.3h-0.7l-28-43.3v60.3h-39.8V40.7
		z"/>
	<path id="M" class="st0" d="M488.8,40.7h42.4l26.1,42.8l26.1-42.8h42.4v121.7h-40.5V102l-28,43.3h-0.7l-28-43.3v60.3h-39.8V40.7z"
		/>
	<path id="I" class="st0" d="M433.6,40.7h40.7v121.7h-40.7V40.7z"/>
	<path id="R" class="st0" d="M304.7,40.7h59.5c19.9,0,34.5,4.6,43.8,13.9c7.4,7.4,11.1,17,11.1,28.9v0.3c0,17-8,29.4-24,37.2
		l28.3,41.4H377l-22.9-34.8h-8.7v34.8h-40.7V40.7z M363,98.6c10.4,0,15.6-3.9,15.6-11.8v-0.3c0-7.8-5.2-11.6-15.5-11.6h-17.7v23.8
		H363z"/>
	<path id="T" class="st0" d="M213.7,75.1h-35.8V40.7h112.3v34.4h-35.8v87.3h-40.7V75.1z"/>
</g>
<rect id="f69227" x="41.7" y="40.7" class="st1" width="121.7" height="121.7"/>
<rect id="_x34_6413c" x="41.7" y="40.7" class="st2" width="121.7" height="121.7"/>
<rect id="d71c4c" x="41.7" y="40.7" class="st3" width="121.7" height="121.7"/>
<rect id="f7ce2b" x="41.7" y="40.7" class="st4" width="121.7" height="121.7"/>
<rect id="becd00" x="41.7" y="40.7" class="st5" width="121.7" height="121.7"/>
<rect id="_x30_d709a" x="41.7" y="40.7" class="st6" width="121.7" height="121.7"/>
<path class="st7" d="M122.3,85c-5.1,0-9.6,5.7-12.9,11.9l0,0c-4.3-11.3-10.1-22.7-19.4-22.7c-18.1,0.4-30.9,47.9-32.4,54.5h34.8
	c10.7-0.1,13.1-8.4,13.1-8.4l-2.4-7.9c0,0-3.2,8.2-10.7,8.2H68.8c2.2-6.9,11.9-37.8,21.3-37.8c8.6,0,15.8,27.5,18.1,33.7
	c2.3,6.2,7.3,12.2,15.9,12.2h23.4C140.5,105.8,131.9,85,122.3,85z M122.3,93.3c5.6,0,14.5,27.4,14.5,27.4h-11c-5,0-8.4-1.2-10.9-8.3
	c0,0-2.4-6.7-2.4-6.7C116,99.3,119.9,93.3,122.3,93.3z"/>
</svg>
